<svg xmlns="http://www.w3.org/2000/svg" viewBox="0 0 64 64" width="320" height="320">
  <rect width="64" height="64" fill="#0E1520"/>
  <defs>
    <linearGradient id="g" x1="14" y1="6" x2="50" y2="62" gradientUnits="userSpaceOnUse">
      <stop offset="0" stop-color="#FFFFFF"/>
      <stop offset="0.5" stop-color="#E6ECF2"/>
      <stop offset="1" stop-color="#9FB0C2"/>
    </linearGradient>
  </defs>
  <path
    d="M 11 51 C 10 35, 19 13, 32 4 C 45 13, 54 35, 53 51 C 46 31, 38 14, 32 4 C 26 14, 18 31, 11 51 Z"
    fill="url(#g)" fill-rule="evenodd"/>
  <path
    d="M 2 55 C 18 49, 46 49, 62 55 C 46 60, 18 60, 2 55 Z"
    fill="url(#g)"/>
  <path
    d="M 32 26 C 32 30, 33 30.8, 35.5 30.8 C 33 30.8, 32 31.6, 32 35.6 C 32 31.6, 31 30.8, 28.5 30.8 C 31 30.8, 32 30, 32 26 Z"
    fill="url(#g)"/>
</svg>
